#!OML:ASF I:\Actors\actors\Patient Classification 2\Patient 1\Session 1\actor1.ASF
:FULLY-SPECIFIED
:DEGREES

207
root -0.611992 18.1879 5.57437 4.88031 -14.6039 -3.13704
lowerback -1.28662 -1.82936 -2.70968
upperback -1.98388 -2.42628 0.757303
thorax -1.16894 -1.17405 2.28527
lowerneck -11.3623 1.09829 7.37572
upperneck 20.5016 -1.65035 7.16646
head 8.33582 0.461415 0.995731
rclavicle 2.08165e-014 7.95139e-016
rhumerus -18.261 52.0296 -71.8731
rradius 123.118
rwrist -52.476
rhand -6.24981 -45.4041
rfingers 7.12502
rthumb 19.5922 -74.4369
lclavicle 2.08165e-014 7.95139e-016
lhumerus 27.4945 8.29205 67.5812
lradius 97.0257
lwrist 87.8075
lhand -37.1808 -15.5381
lfingers 7.12502
lthumb -10.2491 14.1922
rfemur 6.06832 9.22955 16.1492
rtibia -12.1498
rfoot -5.29205 -10.6218
rtoes -1.00682
lfemur 11.655 1.01113 -11.7615
ltibia -8.29603
lfoot -12.3868 20.3125
ltoes -5.3495
208
root -0.606259 18.1813 5.58464 4.67625 -15.1315 -3.18609
lowerback -1.56585 -2.08841 -2.66127
upperback -1.82836 -2.76254 0.773816
thorax -0.834338 -1.34965 2.25715
lowerneck -11.1362 1.53081 7.93931
upperneck 20.7797 -1.16055 7.10538
head 8.39407 0.736237 0.937229
rclavicle -3.61974e-014 -4.77083e-015
rhumerus -13.68 52.2365 -67.7005
rradius 123.631
rwrist -54.068
rhand -6.13012 -46.0091
rfingers 7.12502
rthumb 19.7073 -75.0301
lclavicle -3.61974e-014 -4.77083e-015
lhumerus 29.7584 8.77074 67.213
lradius 94.8972
lwrist 88.168
lhand -37.058 -14.1889
lfingers 7.12502
lthumb -10.1306 15.5472
rfemur 6.36315 9.46848 16.1828
rtibia -12.3806
rfoot -5.03378 -10.4738
rtoes -0.937745
lfemur 12.0057 1.51059 -11.7199
ltibia -8.17189
lfoot -12.6123 20.1907
ltoes -4.92964
209
root -0.599558 18.1736 5.59644 4.47119 -15.6578 -3.21757
lowerback -1.3138 -2.34284 -2.67101
upperback -2.02757 -3.11042 0.87562
thorax -1.15376 -1.51601 2.37907
lowerneck -10.8862 1.88932 8.77526
upperneck 21.4309 -0.72756 6.46652
head 8.57496 0.96756 0.638424
rclavicle -9.31803e-016 3.57812e-015
rhumerus -9.80016 52.48 -63.8957
rradius 124.212
rwrist -56.2516
rhand -5.89545 -46.9383
rfingers 7.12502
rthumb 19.9329 -75.936
lclavicle -9.31803e-016 3.57812e-015
lhumerus 31.2992 9.12553 66.9382
lradius 92.7929
lwrist 88.195
lhand -36.7227 -13.0156
lfingers 7.12502
lthumb -9.80709 16.736
rfemur 6.66974 9.74107 16.1948
rtibia -12.6338
rfoot -4.78217 -10.3535
rtoes -1.00674
lfemur 12.3754 2.00819 -11.6939
ltibia -8.05814
lfoot -12.8389 20.0706
ltoes -4.29323
210
root -0.59211 18.1647 5.61012 4.23878 -16.2208 -3.2178
lowerback -1.03156 -2.5904 -2.75906
upperback -2.20343 -3.44894 1.02351
thorax -1.45838 -1.67627 2.5963
lowerneck -10.7464 2.23426 9.40872
upperneck 22.1564 -0.31862 5.96966
head 8.80898 1.19209 0.419279
rclavicle 3.98812e-015 -7.55382e-015
rhumerus -5.8922 52.5373 -60.047
rradius 124.773
rwrist -58.7724
rhand -5.58545 -48.0759
rfingers 7.12502
rthumb 20.2308 -77.0424
lclavicle 3.98812e-015 -7.55382e-015
lhumerus 32.6504 9.54207 66.8194
lradius 90.6683
lwrist 88.1948
lhand -36.4943 -12.0363
lfingers 7.12502
lthumb -9.5867 17.7256
rfemur 7.00189 10.0348 16.1679
rtibia -12.8975
rfoot -4.53436 -10.2009
rtoes -1.18787
lfemur 12.7783 2.54249 -11.721
ltibia -7.9567
lfoot -13.0061 19.9533
ltoes -3.86644
211
root -0.583438 18.1555 5.62332 3.9464 -16.7982 -3.23779
lowerback -0.99848 -2.82991 -2.81004
upperback -2.15473 -3.76774 1.14375
thorax -1.3952 -1.8359 2.74621
lowerneck -10.5142 2.59695 9.8204
upperneck 22.6401 0.120245 5.80599
head 8.94863 1.43239 0.348655
rclavicle -5.7983e-014 -1.98785e-015
rhumerus -1.73365 52.2897 -56.0853
rradius 125.239
rwrist -61.1395
rhand -5.40617 -49.1885
rfingers 7.12502
rthumb 20.4031 -78.1366
lclavicle -5.7983e-014 -1.98785e-015
lhumerus 34.1691 10.0494 66.8952
lradius 88.5111
lwrist 88.1887
lhand -36.3592 -11.1149
lfingers 7.12502
lthumb -9.45639 18.6529
rfemur 7.4102 10.4007 16.1698
rtibia -13.1806
rfoot -4.28672 -10.094
rtoes -1.10597
lfemur 13.255 3.08264 -11.7192
ltibia -7.84277
lfoot -13.2102 19.7867
ltoes -3.06484
212
root -0.57467 18.1467 5.63497 3.62936 -17.2996 -3.22636
lowerback -0.95119 -3.07165 -2.83898
upperback -2.10209 -4.09042 1.21275
thorax -1.33891 -1.99814 2.83154
lowerneck -10.152 2.91958 10.2663
upperneck 23.0092 0.525758 5.64823
head 9.02772 1.6527 0.267763
rclavicle 1.20886e-014 6.75868e-015
rhumerus 2.15099 51.8312 -52.3318
rradius 125.667
rwrist -63.3201
rhand -5.44065 -49.9849
rfingers 7.12502
rthumb 20.37 -78.9366
lclavicle 1.20886e-014 6.75868e-015
lhumerus 35.6375 10.4859 67.1421
lradius 86.2763
lwrist 87.799
lhand -36.082 -10.1199
lfingers 7.12502
lthumb -9.18891 19.6599
rfemur 7.84476 10.6968 16.1511
rtibia -13.4566
rfoot -4.05584 -10.0043
rtoes -0.921446
lfemur 13.7461 3.54107 -11.7247
ltibia -7.73941
lfoot -13.4889 19.6176
ltoes -2.12521
213
root -0.56632 18.1388 5.64519 3.39224 -17.7302 -3.19025
lowerback -0.83767 -3.31585 -2.89699
upperback -2.14119 -4.41916 1.29341
thorax -1.40957 -2.15959 2.95268
lowerneck -9.83595 3.18881 10.7624
upperneck 23.4382 0.867017 5.37372
head 9.1387 1.83968 0.132985
rclavicle -5.00689e-015 -1.03368e-014
rhumerus 5.52338 51.1971 -48.9192
rradius 126.091
rwrist -65.4003
rhand -5.29777 -50.7848
rfingers 7.12502
rthumb 20.5073 -79.7217
lclavicle -5.00689e-015 -1.03368e-014
lhumerus 36.984 10.8733 67.5757
lradius 83.8705
lwrist 87.0611
lhand -35.6419 -9.47034
lfingers 7.12502
lthumb -8.76425 20.3277
rfemur 8.18202 10.9246 16.0983
rtibia -13.7085
rfoot -3.85909 -9.92311
rtoes -0.832426
lfemur 14.1165 3.94349 -11.7605
ltibia -7.66114
lfoot -13.7308 19.5092
ltoes -1.74264
214
root -0.55741 18.132 5.65538 3.21396 -18.1612 -3.19804
lowerback -0.703899 -3.54588 -2.92996
upperback -2.20548 -4.72945 1.41157
thorax -1.51615 -2.31089 3.10181
lowerneck -9.66513 3.45523 11.203
upperneck 23.9641 1.18538 5.11712
head 9.31321 2.02083 0.0143298
rclavicle 8.81858e-014 -3.97569e-015
rhumerus 8.59 50.4389 -45.7863
rradius 126.477
rwrist -67.4271
rhand -5.07707 -51.7632
rfingers 7.12502
rthumb 20.7194 -80.6772
lclavicle 8.81858e-014 -3.97569e-015
lhumerus 38.2634 11.2911 68.2927
lradius 81.3669
lwrist 86.4282
lhand -35.2984 -9.04896
lfingers 7.12502
lthumb -8.43274 20.7627
rfemur 8.45433 11.1451 16.0833
rtibia -13.9515
rfoot -3.64379 -9.8268
rtoes -0.891199
lfemur 14.4201 4.35601 -11.7569
ltibia -7.57561
lfoot -13.8946 19.401
ltoes -1.44807
215
root -0.548388 18.1252 5.66617 2.99935 -18.6105 -3.20635
lowerback -0.552022 -3.73852 -2.94025
upperback -2.23537 -4.99004 1.50845
thorax -1.60338 -2.43846 3.21768
lowerneck -9.64165 3.71974 11.577
upperneck 24.5479 1.46985 4.94144
head 9.53786 2.19422 -0.0657403
rclavicle -7.20719e-014 -1.05356e-014
rhumerus 11.324 49.5763 -43.0253
rradius 126.808
rwrist -69.5459
rhand -4.8516 -52.9283
rfingers 7.12502
rthumb 20.936 -81.8185
lclavicle -7.20719e-014 -1.05356e-014
lhumerus 39.4707 11.6706 69.2612
lradius 78.9641
lwrist 85.7873
lhand -35.1576 -8.29304
lfingers 7.12502
lthumb -8.29692 21.524
rfemur 8.75236 11.3208 16.0759
rtibia -14.178
rfoot -3.39376 -9.67206
rtoes -1.06057
lfemur 14.7778 4.77961 -11.7399
ltibia -7.49901
lfoot -14.0255 19.2745
ltoes -0.999278
216
root -0.540763 18.1181 5.6776 2.77997 -19.0647 -3.21593
lowerback -0.462789 -3.92322 -2.92038
upperback -2.23296 -5.23795 1.58806
thorax -1.62645 -2.56196 3.29374
lowerneck -9.5953 3.95692 11.9043
upperneck 25.0768 1.73528 4.76533
head 9.73991 2.35138 -0.141446
rclavicle 6.89907e-014 -5.96354e-015
rhumerus 13.7398 48.6939 -40.5928
rradius 127.043
rwrist -71.6754
rhand -4.26497 -54.0032
rfingers 7.12502
rthumb 21.4995 -82.8301
lclavicle 6.89907e-014 -5.96354e-015
lhumerus 40.4531 12.038 70.2106
lradius 76.7042
lwrist 84.9541
lhand -35.0257 -7.47197
lfingers 7.12502
lthumb -8.16959 22.3501
rfemur 9.05467 11.509 16.0761
rtibia -14.3897
rfoot -3.13305 -9.52912
rtoes -1.15273
lfemur 15.1462 5.20637 -11.7143
ltibia -7.42902
lfoot -14.1724 19.1739
ltoes -0.627636
217
root -0.533919 18.1122 5.68905 2.57649 -19.5255 -3.23191
lowerback -0.386837 -4.14543 -2.92696
upperback -2.29025 -5.53599 1.69386
thorax -1.6942 -2.70835 3.41338
lowerneck -9.25447 4.18622 12.2436
upperneck 25.4689 2.0687 4.504
head 9.84159 2.52092 -0.248851
rclavicle -4.03657e-014 2.18663e-015
rhumerus 15.9469 47.9746 -38.4015
rradius 127.187
rwrist -73.739
rhand -3.66061 -54.6478
rfingers 7.12502
rthumb 22.0798 -83.4072
lclavicle -4.03657e-014 2.18663e-015
lhumerus 41.0216 12.4657 71.0158
lradius 74.5518
lwrist 84.0576
lhand -34.8292 -6.80199
lfingers 7.12502
lthumb -7.97988 23.0274
rfemur 9.3462 11.7233 16.0852
rtibia -14.608
rfoot -2.86629 -9.41689
rtoes -1.23274
lfemur 15.481 5.64453 -11.6909
ltibia -7.3273
lfoot -14.3114 19.1091
ltoes -0.445173
218
root -0.525647 18.1062 5.70079 2.35659 -20.0105 -3.20075
lowerback -0.281651 -4.5045 -2.99197
upperback -2.26552 -6.01576 1.9556
thorax -1.65558 -2.94731 3.72243
lowerneck -9.13205 4.61425 12.2004
upperneck 25.8157 2.73205 4.24908
head 9.96984 2.80943 -0.25049
rclavicle -3.0824e-014 8.44835e-015
rhumerus 18.8343 47.4204 -35.699
rradius 127.329
rwrist -75.9785
rhand -3.48165 -55.3439
rfingers 7.12502
rthumb 22.2517 -84.0829
lclavicle -3.0824e-014 8.44835e-015
lhumerus 41.3898 13.455 71.8418
lradius 72.6123
lwrist 83.1804
lhand -34.6116 -6.21864
lfingers 7.12502
lthumb -7.76991 23.6186
rfemur 9.62666 11.8826 16.0368
rtibia -14.8211
rfoot -2.57297 -9.23814
rtoes -1.34832
lfemur 15.814 6.10857 -11.7235
ltibia -7.20825
lfoot -14.4631 19.0312
ltoes -0.195305
219
root -0.515261 18.1 5.71231 2.15798 -20.4819 -3.17598
lowerback -0.201959 -4.69293 -2.9191
upperback -2.20635 -6.26788 1.99255
thorax -1.62133 -3.07604 3.72252
lowerneck -9.20339 4.89092 12.5708
upperneck 26.1488 3.06441 4.01763
head 10.1367 2.98715 -0.343336
rclavicle -5.12445e-014 -4.07509e-015
rhumerus 20.6572 46.6472 -33.835
rradius 127.494
rwrist -78.1295
rhand -3.40769 -56.2643
rfingers 7.12502
rthumb 22.3227 -84.9949
lclavicle -5.12445e-014 -4.07509e-015
lhumerus 41.7993 13.8837 72.5895
lradius 70.8895
lwrist 82.5088
lhand -34.4003 -5.75109
lfingers 7.12502
lthumb -7.56591 24.0936
rfemur 9.86384 11.989 15.9814
rtibia -15.0039
rfoot -2.25342 -9.01775
rtoes -1.35936
lfemur 16.1351 6.56078 -11.741
ltibia -7.11468
lfoot -14.6619 18.9231
ltoes 0.402819
220
root -0.505457 18.0947 5.72219 2.02116 -20.9188 -3.20157
lowerback -0.14571 -4.77047 -2.73389
upperback -2.12328 -6.37107 1.91457
thorax -1.58685 -3.13261 3.54097
lowerneck -9.57105 5.00826 13.1387
upperneck 26.6244 3.06555 3.80272
head 10.4105 3.04253 -0.492173
rclavicle 7.55242e-014 -2.25869e-014
rhumerus 21.826 45.7372 -32.4784
rradius 127.564
rwrist -80.0767
rhand -3.34099 -56.9495
rfingers 7.12502
rthumb 22.3867 -85.6724
lclavicle 7.55242e-014 -2.25869e-014
lhumerus 42.2315 13.9911 73.4066
lradius 69.302
lwrist 82.0283
lhand -34.1472 -5.23403
lfingers 7.12502
lthumb -7.32167 24.6193
rfemur 10.0454 12.1929 15.9776
rtibia -15.1654
rfoot -2.00336 -8.91067
rtoes -1.24282
lfemur 16.4057 6.98393 -11.7014
ltibia -7.04309
lfoot -14.8245 18.8303
ltoes 0.89426
